<svg width="84" height="62" viewBox="0 0 84 62" fill="none" xmlns="http://www.w3.org/2000/svg">
<path d="M4.11 55.1C3.61667 55.1 3.16333 55.05 2.75 54.95C2.33667 54.8433 1.96333 54.6933 1.63 54.5C1.29667 54.3067 1 54.0733 0.74 53.8L1.56 52.65C1.99333 53.0833 2.42667 53.3867 2.86 53.56C3.29333 53.7333 3.74 53.82 4.2 53.82C4.43333 53.82 4.66 53.79 4.88 53.73C5.10667 53.67 5.29 53.5833 5.43 53.47C5.57667 53.35 5.65 53.1967 5.65 53.01C5.65 52.89 5.61333 52.7867 5.54 52.7C5.46667 52.6133 5.37 52.54 5.25 52.48C5.13 52.42 4.99 52.37 4.83 52.33C4.67 52.2833 4.5 52.2467 4.32 52.22C4.14667 52.1867 3.96667 52.16 3.78 52.14C3.36 52.0733 2.98333 51.9833 2.65 51.87C2.32333 51.7567 2.04333 51.6133 1.81 51.44C1.57667 51.26 1.4 51.0533 1.28 50.82C1.16667 50.58 1.11 50.3067 1.11 50C1.11 49.6733 1.18667 49.3767 1.34 49.11C1.49333 48.8433 1.70667 48.6167 1.98 48.43C2.25333 48.2433 2.57 48.1033 2.93 48.01C3.29667 47.91 3.69 47.86 4.11 47.86C4.57 47.86 4.98 47.9067 5.34 48C5.7 48.0933 6.02 48.2267 6.3 48.4C6.58 48.5667 6.81 48.7667 6.99 49L6.13 49.99C5.96333 49.8167 5.76667 49.6667 5.54 49.54C5.32 49.4133 5.08667 49.3167 4.84 49.25C4.59333 49.1833 4.34333 49.15 4.09 49.15C3.81 49.15 3.56333 49.18 3.35 49.24C3.14333 49.2933 2.97667 49.3767 2.85 49.49C2.73 49.5967 2.67 49.7333 2.67 49.9C2.67 50.0333 2.71667 50.15 2.81 50.25C2.90333 50.35 3.02667 50.4333 3.18 50.5C3.33333 50.56 3.51 50.6133 3.71 50.66C3.91 50.7 4.12 50.7367 4.34 50.77C4.72667 50.83 5.09333 50.9067 5.44 51C5.78667 51.0867 6.09333 51.2067 6.36 51.36C6.62667 51.5067 6.83333 51.7 6.98 51.94C7.12667 52.1733 7.2 52.4667 7.2 52.82C7.2 53.2933 7.06667 53.7 6.8 54.04C6.54 54.38 6.18 54.6433 5.72 54.83C5.26 55.01 4.72333 55.1 4.11 55.1ZM10.1566 55V48.2H11.5766V55H10.1566ZM8.82664 50.98V49.71H13.1066V50.98H8.82664ZM17.5544 55.1C17.0144 55.1 16.5344 54.9833 16.1144 54.75C15.701 54.51 15.3777 54.1833 15.1444 53.77C14.911 53.3567 14.7944 52.8833 14.7944 52.35C14.7944 51.8167 14.9144 51.3433 15.1544 50.93C15.3944 50.5167 15.7244 50.1933 16.1444 49.96C16.5644 49.72 17.051 49.6 17.6044 49.6C17.931 49.6 18.231 49.6433 18.5044 49.73C18.7777 49.81 19.0177 49.9167 19.2244 50.05C19.431 50.1833 19.5977 50.3333 19.7244 50.5C19.8577 50.6667 19.9377 50.83 19.9644 50.99L19.6244 51V49.71H21.0344V55H19.6044V53.62L19.9044 53.67C19.8777 53.8433 19.7977 54.0133 19.6644 54.18C19.531 54.3467 19.3577 54.5 19.1444 54.64C18.9377 54.78 18.6977 54.8933 18.4244 54.98C18.151 55.06 17.861 55.1 17.5544 55.1ZM17.9244 53.87C18.271 53.87 18.5744 53.8067 18.8344 53.68C19.0944 53.5467 19.2944 53.3667 19.4344 53.14C19.5744 52.9067 19.6444 52.6433 19.6444 52.35C19.6444 52.05 19.5744 51.7867 19.4344 51.56C19.2944 51.3333 19.0944 51.1567 18.8344 51.03C18.5744 50.8967 18.271 50.83 17.9244 50.83C17.5844 50.83 17.2844 50.8967 17.0244 51.03C16.771 51.1567 16.571 51.3333 16.4244 51.56C16.2777 51.7867 16.2044 52.05 16.2044 52.35C16.2044 52.6433 16.2777 52.9067 16.4244 53.14C16.571 53.3667 16.771 53.5467 17.0244 53.68C17.2844 53.8067 17.5844 53.87 17.9244 53.87ZM23.9609 55V49.71H25.3309L25.3809 51.56L25.0309 51.4C25.1176 51.0667 25.2709 50.7633 25.4909 50.49C25.7176 50.2167 25.9776 50 26.2709 49.84C26.5709 49.68 26.8843 49.6 27.2109 49.6C27.3976 49.6 27.5809 49.62 27.7609 49.66C27.9409 49.7 28.0876 49.75 28.2009 49.81L27.8209 51.34C27.7076 51.2667 27.5576 51.21 27.3709 51.17C27.1909 51.1233 27.0143 51.1 26.8409 51.1C26.6143 51.1 26.4109 51.1367 26.2309 51.21C26.0576 51.2833 25.9076 51.3833 25.7809 51.51C25.6543 51.6367 25.5576 51.78 25.4909 51.94C25.4243 52.0933 25.3909 52.2567 25.3909 52.43V55H23.9609ZM34.5245 55V48H35.8945L38.8045 52.04L37.9745 52.03L40.8945 48H42.2445V55H40.7745V52.54C40.7745 51.9667 40.7879 51.44 40.8145 50.96C40.8412 50.4733 40.8945 49.9833 40.9745 49.49L41.1345 49.99L38.7045 53.2H38.0445L35.6245 49.98L35.7945 49.49C35.8745 49.97 35.9279 50.45 35.9545 50.93C35.9812 51.41 35.9945 51.9467 35.9945 52.54V55H34.5245ZM47.193 55.1C46.653 55.1 46.173 54.9833 45.753 54.75C45.3397 54.51 45.0164 54.1833 44.783 53.77C44.5497 53.3567 44.433 52.8833 44.433 52.35C44.433 51.8167 44.553 51.3433 44.793 50.93C45.033 50.5167 45.363 50.1933 45.783 49.96C46.203 49.72 46.6897 49.6 47.243 49.6C47.5697 49.6 47.8697 49.6433 48.143 49.73C48.4164 49.81 48.6564 49.9167 48.863 50.05C49.0697 50.1833 49.2364 50.3333 49.363 50.5C49.4964 50.6667 49.5764 50.83 49.603 50.99L49.263 51V49.71H50.673V55H49.243V53.62L49.543 53.67C49.5164 53.8433 49.4364 54.0133 49.303 54.18C49.1697 54.3467 48.9964 54.5 48.783 54.64C48.5764 54.78 48.3364 54.8933 48.063 54.98C47.7897 55.06 47.4997 55.1 47.193 55.1ZM47.563 53.87C47.9097 53.87 48.213 53.8067 48.473 53.68C48.733 53.5467 48.933 53.3667 49.073 53.14C49.213 52.9067 49.283 52.6433 49.283 52.35C49.283 52.05 49.213 51.7867 49.073 51.56C48.933 51.3333 48.733 51.1567 48.473 51.03C48.213 50.8967 47.9097 50.83 47.563 50.83C47.223 50.83 46.923 50.8967 46.663 51.03C46.4097 51.1567 46.2097 51.3333 46.063 51.56C45.9164 51.7867 45.843 52.05 45.843 52.35C45.843 52.6433 45.9164 52.9067 46.063 53.14C46.2097 53.3667 46.4097 53.5467 46.663 53.68C46.923 53.8067 47.223 53.87 47.563 53.87ZM53.5996 57.2V49.7H54.9696L55.0096 50.9L54.7596 50.81C54.8063 50.61 54.9363 50.42 55.1496 50.24C55.3696 50.06 55.6429 49.91 55.9696 49.79C56.2963 49.67 56.6496 49.61 57.0296 49.61C57.5829 49.61 58.0663 49.7267 58.4796 49.96C58.8996 50.1933 59.2263 50.5167 59.4596 50.93C59.6929 51.3367 59.8096 51.81 59.8096 52.35C59.8096 52.8833 59.6896 53.3567 59.4496 53.77C59.2163 54.1833 58.8896 54.5067 58.4696 54.74C58.0563 54.9733 57.5763 55.09 57.0296 55.09C56.6429 55.09 56.2796 55.03 55.9396 54.91C55.6063 54.7833 55.3296 54.6233 55.1096 54.43C54.8896 54.23 54.7529 54.03 54.6996 53.83L55.0296 53.69V57.2H53.5996ZM56.7096 53.87C57.0496 53.87 57.3496 53.8067 57.6096 53.68C57.8696 53.5467 58.0696 53.3667 58.2096 53.14C58.3563 52.9067 58.4296 52.6433 58.4296 52.35C58.4296 52.05 58.3563 51.7867 58.2096 51.56C58.0696 51.3333 57.8696 51.1567 57.6096 51.03C57.3563 50.9033 57.0563 50.84 56.7096 50.84C56.3696 50.84 56.0663 50.9067 55.7996 51.04C55.5396 51.1667 55.3363 51.3433 55.1896 51.57C55.0496 51.7967 54.9796 52.0567 54.9796 52.35C54.9796 52.6433 55.0496 52.9067 55.1896 53.14C55.3363 53.3667 55.5396 53.5467 55.7996 53.68C56.0663 53.8067 56.3696 53.87 56.7096 53.87ZM62.2031 57.2V49.7H63.5731L63.6131 50.9L63.3631 50.81C63.4098 50.61 63.5398 50.42 63.7531 50.24C63.9731 50.06 64.2465 49.91 64.5731 49.79C64.8998 49.67 65.2531 49.61 65.6331 49.61C66.1865 49.61 66.6698 49.7267 67.0831 49.96C67.5031 50.1933 67.8298 50.5167 68.0631 50.93C68.2965 51.3367 68.4131 51.81 68.4131 52.35C68.4131 52.8833 68.2931 53.3567 68.0531 53.77C67.8198 54.1833 67.4931 54.5067 67.0731 54.74C66.6598 54.9733 66.1798 55.09 65.6331 55.09C65.2465 55.09 64.8831 55.03 64.5431 54.91C64.2098 54.7833 63.9331 54.6233 63.7131 54.43C63.4931 54.23 63.3565 54.03 63.3031 53.83L63.6331 53.69V57.2H62.2031ZM65.3131 53.87C65.6531 53.87 65.9531 53.8067 66.2131 53.68C66.4731 53.5467 66.6731 53.3667 66.8131 53.14C66.9598 52.9067 67.0331 52.6433 67.0331 52.35C67.0331 52.05 66.9598 51.7867 66.8131 51.56C66.6731 51.3333 66.4731 51.1567 66.2131 51.03C65.9598 50.9033 65.6598 50.84 65.3131 50.84C64.9731 50.84 64.6698 50.9067 64.4031 51.04C64.1431 51.1667 63.9398 51.3433 63.7931 51.57C63.6531 51.7967 63.5831 52.0567 63.5831 52.35C63.5831 52.6433 63.6531 52.9067 63.7931 53.14C63.9398 53.3667 64.1431 53.5467 64.4031 53.68C64.6698 53.8067 64.9731 53.87 65.3131 53.87ZM73.4266 55.1C72.7666 55.1 72.1866 54.9833 71.6866 54.75C71.1933 54.5167 70.8066 54.1967 70.5266 53.79C70.2533 53.3767 70.1166 52.91 70.1166 52.39C70.1166 51.97 70.1966 51.59 70.3566 51.25C70.5233 50.9033 70.75 50.61 71.0366 50.37C71.3233 50.1233 71.6566 49.9333 72.0366 49.8C72.4166 49.6667 72.8233 49.6 73.2566 49.6C73.67 49.6 74.0566 49.6667 74.4166 49.8C74.7766 49.9267 75.09 50.1067 75.3566 50.34C75.6233 50.5733 75.8266 50.85 75.9666 51.17C76.1133 51.49 76.18 51.8433 76.1666 52.23L76.1566 52.71H71.1266L70.8966 51.8H74.9866L74.8266 51.98V51.76C74.8066 51.5667 74.7233 51.3967 74.5766 51.25C74.43 51.1033 74.2433 50.99 74.0166 50.91C73.79 50.83 73.5433 50.79 73.2766 50.79C72.9233 50.79 72.6066 50.8433 72.3266 50.95C72.0533 51.0567 71.84 51.22 71.6866 51.44C71.5333 51.66 71.4566 51.94 71.4566 52.28C71.4566 52.5933 71.5433 52.87 71.7166 53.11C71.8966 53.35 72.15 53.5367 72.4766 53.67C72.81 53.8033 73.1933 53.87 73.6266 53.87C74.02 53.87 74.35 53.82 74.6166 53.72C74.8833 53.62 75.1133 53.5033 75.3066 53.37L75.9466 54.32C75.7333 54.48 75.49 54.62 75.2166 54.74C74.9433 54.8533 74.6533 54.94 74.3466 55C74.04 55.0667 73.7333 55.1 73.4266 55.1ZM78.5996 55V49.71H79.9696L80.0196 51.56L79.6696 51.4C79.7563 51.0667 79.9096 50.7633 80.1296 50.49C80.3563 50.2167 80.6163 50 80.9096 49.84C81.2096 49.68 81.5229 49.6 81.8496 49.6C82.0363 49.6 82.2196 49.62 82.3996 49.66C82.5796 49.7 82.7263 49.75 82.8396 49.81L82.4596 51.34C82.3463 51.2667 82.1963 51.21 82.0096 51.17C81.8296 51.1233 81.6529 51.1 81.4796 51.1C81.2529 51.1 81.0496 51.1367 80.8696 51.21C80.6963 51.2833 80.5463 51.3833 80.4196 51.51C80.2929 51.6367 80.1963 51.78 80.1296 51.94C80.0629 52.0933 80.0296 52.2567 80.0296 52.43V55H78.5996Z" fill="#9E9C9C"/>
<mask id="path-2-outside-1_1109_152" maskUnits="userSpaceOnUse" x="18" y="0" width="49" height="46" fill="black">
<rect fill="white" x="18" width="49" height="46"/>
<path fill-rule="evenodd" clip-rule="evenodd" d="M44.6194 18.6602L41.111 1L37.5119 19.1174L19 22.795L37.4465 26.4595L41.111 44.906L44.6847 26.9167L65.4328 22.7949L44.6194 18.6602Z"/>
</mask>
<path fill-rule="evenodd" clip-rule="evenodd" d="M44.6194 18.6602L41.111 1L37.5119 19.1174L19 22.795L37.4465 26.4595L41.111 44.906L44.6847 26.9167L65.4328 22.7949L44.6194 18.6602Z" fill="#D7D7D7"/>
<path d="M41.111 1L44.0535 0.415449H38.1685L41.111 1ZM44.6194 18.6602L41.6769 19.2447L42.0677 21.2119L44.0348 21.6027L44.6194 18.6602ZM37.5119 19.1174L38.0964 22.0599L40.0636 21.6691L40.4544 19.702L37.5119 19.1174ZM19 22.795L18.4154 19.8525L18.4154 25.7375L19 22.795ZM37.4465 26.4595L40.389 25.875L39.9982 23.9078L38.031 23.517L37.4465 26.4595ZM41.111 44.906L38.1685 45.4905H44.0535L41.111 44.906ZM44.6847 26.9167L44.1002 23.9742L42.133 24.365L41.7423 26.3322L44.6847 26.9167ZM65.4328 22.7949L66.0174 25.7374V19.8524L65.4328 22.7949ZM38.1685 1.58455L41.6769 19.2447L47.5619 18.0756L44.0535 0.415449L38.1685 1.58455ZM40.4544 19.702L44.0535 1.58455L38.1685 0.415449L34.5694 18.5329L40.4544 19.702ZM19.5846 25.7375L38.0964 22.0599L36.9273 16.1749L18.4154 19.8525L19.5846 25.7375ZM38.031 23.517L19.5846 19.8525L18.4154 25.7375L36.8619 29.402L38.031 23.517ZM44.0535 44.3214L40.389 25.875L34.504 27.0441L38.1685 45.4905L44.0535 44.3214ZM41.7423 26.3322L38.1685 44.3214L44.0535 45.4905L47.6272 27.5013L41.7423 26.3322ZM64.8483 19.8524L44.1002 23.9742L45.2693 29.8592L66.0174 25.7374L64.8483 19.8524ZM44.0348 21.6027L64.8483 25.7374L66.0174 19.8524L45.2039 15.7177L44.0348 21.6027Z" fill="black" mask="url(#path-2-outside-1_1109_152)"/>
<mask id="path-4-outside-2_1109_152" maskUnits="userSpaceOnUse" x="27.9253" y="9.92529" width="26" height="26" fill="black">
<rect fill="white" x="27.9253" y="9.92529" width="26" height="26"/>
<path fill-rule="evenodd" clip-rule="evenodd" d="M51.8894 11.9257L44.5471 22.9084L51.8867 33.8872L40.9076 26.5473L29.928 33.8876L37.2679 22.9084L29.9253 11.9253L40.9076 19.2674L51.8894 11.9257Z"/>
</mask>
<path fill-rule="evenodd" clip-rule="evenodd" d="M51.8894 11.9257L44.5471 22.9084L51.8867 33.8872L40.9076 26.5473L29.928 33.8876L37.2679 22.9084L29.9253 11.9253L40.9076 19.2674L51.8894 11.9257Z" fill="url(#paint0_radial_1109_152)"/>
<path d="M44.5471 22.9084L42.8844 21.7969L42.1413 22.9084L42.8844 24.02L44.5471 22.9084ZM51.8894 11.9257L53.5521 13.0372L50.7779 10.263L51.8894 11.9257ZM51.8867 33.8872L50.7752 35.5498L53.5494 32.7756L51.8867 33.8872ZM40.9076 26.5473L42.0192 24.8846L40.9076 24.1415L39.7961 24.8846L40.9076 26.5473ZM29.928 33.8876L28.2653 32.776L31.0395 35.5502L29.928 33.8876ZM37.2679 22.9084L38.9305 24.02L39.6737 22.9084L38.9305 21.7969L37.2679 22.9084ZM29.9253 11.9253L31.0368 10.2626L28.2626 13.0368L29.9253 11.9253ZM40.9076 19.2674L39.7961 20.93L40.9076 21.6731L42.0192 20.93L40.9076 19.2674ZM46.2098 24.02L53.5521 13.0372L50.2267 10.8141L42.8844 21.7969L46.2098 24.02ZM53.5494 32.7756L46.2098 21.7969L42.8844 24.02L50.2241 34.9987L53.5494 32.7756ZM39.7961 28.21L50.7752 35.5498L52.9983 32.2245L42.0192 24.8846L39.7961 28.21ZM31.0395 35.5502L42.0192 28.21L39.7961 24.8846L28.8164 32.2249L31.0395 35.5502ZM35.6052 21.7969L28.2653 32.776L31.5906 34.9991L38.9305 24.02L35.6052 21.7969ZM28.2626 13.0368L35.6052 24.02L38.9305 21.7969L31.588 10.8137L28.2626 13.0368ZM42.0192 17.6047L31.0368 10.2626L28.8137 13.588L39.7961 20.93L42.0192 17.6047ZM50.7779 10.263L39.7961 17.6047L42.0192 20.93L53.001 13.5884L50.7779 10.263Z" fill="black" mask="url(#path-4-outside-2_1109_152)"/>
<defs>
<radialGradient id="paint0_radial_1109_152" cx="0" cy="0" r="1" gradientUnits="userSpaceOnUse" gradientTransform="translate(40.6011 22.5987) rotate(-42.5099) scale(7.41067 4.61162)">
<stop stop-color="#DD1C1A"/>
<stop offset="1" stop-color="#770F0E"/>
</radialGradient>
</defs>
</svg>
