<svg width="112" height="106" viewBox="0 0 112 106" fill="none" xmlns="http://www.w3.org/2000/svg">
<mask id="path-1-outside-1_1339_929" maskUnits="userSpaceOnUse" x="0" y="0" width="112" height="106" fill="black">
<rect fill="white" width="112" height="106"/>
<path fill-rule="evenodd" clip-rule="evenodd" d="M61.6244 42.7907L53.3223 1L44.8056 43.8716L1 52.5739L44.6511 61.2455L53.3227 104.896L61.7791 62.3287L110.877 52.5751L61.6244 42.7907Z"/>
</mask>
<path fill-rule="evenodd" clip-rule="evenodd" d="M61.6244 42.7907L53.3223 1L44.8056 43.8716L1 52.5739L44.6511 61.2455L53.3227 104.896L61.7791 62.3287L110.877 52.5751L61.6244 42.7907Z" fill="#D7D7D7"/>
<path d="M53.3223 1L56.2648 0.415449L50.3798 0.415449L53.3223 1ZM61.6244 42.7907L58.6819 43.3752L59.0727 45.3424L61.0398 45.7332L61.6244 42.7907ZM44.8056 43.8716L45.3901 46.8141L47.3573 46.4233L47.7481 44.4561L44.8056 43.8716ZM1 52.5739L0.415449 49.6314L0.415449 55.5164L1 52.5739ZM44.6511 61.2455L47.5936 60.661L47.2029 58.6938L45.2357 58.3031L44.6511 61.2455ZM53.3227 104.896L50.3802 105.481H56.2652L53.3227 104.896ZM61.7791 62.3287L61.1945 59.3862L59.2274 59.777L58.8366 61.7442L61.7791 62.3287ZM110.877 52.5751L111.461 55.5176V49.6326L110.877 52.5751ZM50.3798 1.58455L58.6819 43.3752L64.5669 42.2061L56.2648 0.415449L50.3798 1.58455ZM47.7481 44.4561L56.2648 1.58455L50.3798 0.415449L41.8631 43.287L47.7481 44.4561ZM1.58455 55.5164L45.3901 46.8141L44.221 40.9291L0.415449 49.6314L1.58455 55.5164ZM45.2357 58.3031L1.58455 49.6314L0.415449 55.5164L44.0666 64.188L45.2357 58.3031ZM56.2652 104.312L47.5936 60.661L41.7086 61.8301L50.3802 105.481L56.2652 104.312ZM58.8366 61.7442L50.3802 104.312L56.2652 105.481L64.7216 62.9133L58.8366 61.7442ZM110.292 49.6326L61.1945 59.3862L62.3637 65.2712L111.461 55.5176L110.292 49.6326ZM61.0398 45.7332L110.292 55.5176L111.461 49.6326L62.209 39.8482L61.0398 45.7332Z" fill="black" mask="url(#path-1-outside-1_1339_929)"/>
<mask id="path-3-outside-2_1339_929" maskUnits="userSpaceOnUse" x="24.8534" y="24.8535" width="56" height="56" fill="black">
<rect fill="white" x="24.8534" y="24.8535" width="56" height="56"/>
<path fill-rule="evenodd" clip-rule="evenodd" d="M78.8289 26.8543L61.4537 52.8442L78.8211 78.8226L52.841 61.4541L26.8596 78.8234L44.2283 52.8431L26.8534 26.8535L52.8418 44.2275L78.8289 26.8543Z"/>
</mask>
<path fill-rule="evenodd" clip-rule="evenodd" d="M78.8289 26.8543L61.4537 52.8442L78.8211 78.8226L52.841 61.4541L26.8596 78.8234L44.2283 52.8431L26.8534 26.8535L52.8418 44.2275L78.8289 26.8543Z" fill="url(#paint0_radial_1339_929)"/>
<path d="M61.4537 52.8442L59.7911 51.7327L59.048 52.8442L59.7911 53.9558L61.4537 52.8442ZM78.8289 26.8543L80.4915 27.9658L77.7173 25.1916L78.8289 26.8543ZM78.8211 78.8226L77.7096 80.4853L80.4838 77.7111L78.8211 78.8226ZM52.841 61.4541L53.9525 59.7914L52.841 59.0483L51.7294 59.7914L52.841 61.4541ZM26.8596 78.8234L25.197 77.7119L27.9712 80.4861L26.8596 78.8234ZM44.2283 52.8431L45.891 53.9546L46.6341 52.8431L45.891 51.7315L44.2283 52.8431ZM26.8534 26.8535L27.965 25.1908L25.1908 27.965L26.8534 26.8535ZM52.8418 44.2275L51.7302 45.8902L52.8418 46.6333L53.9533 45.8902L52.8418 44.2275ZM63.1164 53.9558L80.4915 27.9658L77.1662 25.7427L59.7911 51.7327L63.1164 53.9558ZM80.4838 77.7111L63.1164 51.7327L59.7911 53.9558L77.1585 79.9342L80.4838 77.7111ZM51.7294 63.1167L77.7096 80.4853L79.9327 77.16L53.9525 59.7914L51.7294 63.1167ZM27.9712 80.4861L53.9525 63.1167L51.7294 59.7914L25.7481 77.1608L27.9712 80.4861ZM42.5657 51.7315L25.197 77.7119L28.5223 79.935L45.891 53.9546L42.5657 51.7315ZM25.1908 27.965L42.5657 53.9546L45.891 51.7315L28.5161 25.7419L25.1908 27.965ZM53.9533 42.5648L27.965 25.1908L25.7419 28.5161L51.7302 45.8902L53.9533 42.5648ZM77.7173 25.1916L51.7302 42.5648L53.9533 45.8902L79.9404 28.5169L77.7173 25.1916Z" fill="black" mask="url(#path-3-outside-2_1339_929)"/>
<defs>
<radialGradient id="paint0_radial_1339_929" cx="0" cy="0" r="1" gradientUnits="userSpaceOnUse" gradientTransform="translate(52.1168 52.1105) rotate(-42.5092) scale(17.5364 10.9128)">
<stop stop-color="#DD1C1A"/>
<stop offset="1" stop-color="#770F0E"/>
</radialGradient>
</defs>
</svg>
